<?xml version="1.0" encoding="utf-8"?>
<!-- Generator: Adobe Illustrator 19.0.0, SVG Export Plug-In . SVG Version: 6.00 Build 0)  -->
<svg version="1.1" id="Layer_1" xmlns="http://www.w3.org/2000/svg" xmlns:xlink="http://www.w3.org/1999/xlink" x="0px" y="0px"
	 viewBox="0 0 400 250" style="enable-background:new 0 0 400 250;" xml:space="preserve">
<style type="text/css">
	.st0{fill:#FEFEFE;}
	.st1{fill:#EBA1F4;}
	.st2{fill:#5098E8;}
	.st3{fill:#CBCBCB;}
	.st4{fill:#89B9EE;}
	.st5{fill:#5B9EE9;}
	.st6{fill:#6DA9EB;}
	.st7{fill:#5099E8;}
	.st8{fill:#EBF2FB;}
	.st9{fill:#E5EEFA;}
	.st10{fill:#F6F8FD;}
	.st11{fill:#95BFEF;}
	.st12{fill:#B6C2CF;}
	.st13{fill:#C0D8F4;}
	.st14{fill:#85B1ED;}
	.st15{fill:#99B5D5;}
	.st16{fill:#C6DBF5;}
	.st17{fill:#E7E0F9;}
	.st18{fill:#B7C2CF;}
	.st19{fill:#98C1EE;}
	.st20{fill:#B0CFF2;}
	.st21{fill:#A5C9F0;}
	.st22{fill:#A2C7F0;}
	.st23{fill:#F2F7FC;}
	.st24{fill:#F3F7FC;}
	.st25{fill:#F5F8FD;}
	.st26{fill:#E4EFFB;}
	.st27{fill:#ECF3FB;}
	.st28{fill:#F4F8FD;}
	.st29{fill:#EBF3FC;}
	.st30{fill:#72ACEB;}
	.st31{fill:#DEEBF9;}
	.st32{fill:#D4E6F9;}
	.st33{fill:#D2E4F8;}
	.st34{fill:#F6F9FD;}
	.st35{fill:#D3E4F7;}
	.st36{fill:#CFE2F8;}
	.st37{fill:#A8CBF1;}
	.st38{fill:#F8FBFD;}
	.st39{fill:#BED9F6;}
	.st40{fill:#DEEBFA;}
	.st41{fill:#CDE1F8;}
	.st42{fill:#60A1E9;}
	.st43{fill:#ECF3FC;}
	.st44{fill:#F9FBFD;}
	.st45{fill:#E5F0FB;}
	.st46{fill:#C0D9F5;}
	.st47{fill:#68A6EB;}
	.st48{fill:#F1F6FC;}
	.st49{fill:#C0DAF6;}
	.st50{fill:#E3EEFA;}
	.st51{fill:#A6C9F1;}
	.st52{fill:#C5DCF6;}
	.st53{fill:#FBFCFE;}
	.st54{fill:#F0F6FC;}
	.st55{fill:#9AC3F1;}
	.st56{fill:#D2E5F8;}
	.st57{fill:#71ABEA;}
	.st58{fill:#63A3E9;}
	.st59{fill:#5C9FE9;}
	.st60{fill:#C9DEF6;}
	.st61{fill:#86B7ED;}
	.st62{fill:#70AAEA;}
	.st63{fill:#F5F9FC;}
	.st64{fill:#F2F7FD;}
	.st65{fill:#C1DBF6;}
	.st66{fill:#CADFF6;}
	.st67{fill:#549AE8;}
	.st68{fill:#FAFCFE;}
	.st69{fill:#BCD7F4;}
	.st70{fill:#B8D5F5;}
	.st71{fill:#F7FAFD;}
	.st72{fill:#E1EDFB;}
	.st73{fill:#CEE2F8;}
	.st74{fill:#9BC3F0;}
	.st75{fill:#5FA1E9;}
	.st76{fill:#6FAAEA;}
	.st77{fill:#7AB0EC;}
	.st78{fill:#7CB1EB;}
	.st79{fill:#7AB0EB;}
	.st80{fill:#5C9FEA;}
	.st81{fill:#F5F9FD;}
	.st82{fill:#EEF5FC;}
	.st83{fill:#EEF4FB;}
	.st84{fill:#FDFDFE;}
	.st85{fill:#FCFDFE;}
	.st86{fill:#FBFCFD;}
	.st87{fill:#FAFCFD;}
</style>
<g>
	<path id="XMLID_145_" class="st0" d="M199.7,249.9c-65.7,0-131.3,0-197,0.1c-2.2,0-2.7-0.4-2.7-2.6C0.1,165.8,0.1,84.2,0,2.6
		C0,0.4,0.4,0,2.7,0c131.6,0.1,263.1,0.1,394.7,0c2.2,0,2.7,0.4,2.7,2.6c-0.1,81.6-0.1,163.3,0,244.9c0,2.1-0.4,2.6-2.7,2.6
		C331.5,249.9,265.6,249.9,199.7,249.9z"/>
	<path id="XMLID_144_" class="st1" d="M278.5,135.9c-2.9,13.4-8.3,25.6-18.7,35.2c-9,8.3-19.8,13-32,15.2
		c-13.2,2.4-26.5,1.7-39.7,1.8c-5.4,0-10.8,0-16.2,0c-1.6-0.8-1.7-2.3-1.7-3.8c0-17.2-0.2-34.4,0.1-51.6c-0.1-8.3-0.1-16.5,0-24.8
		c0-0.4,0.1-0.7,0.1-1.1c0-0.4,0-0.7,0-1.1c0-0.6,0-1.1,0-1.7c-0.1-0.9,0-1.9,0-2.8c-0.2-18.3-0.1-36.6-0.1-54.9
		c0-1.6-0.1-3.5,2.3-3.9c14.4,0,28.8-0.3,43.2,0.2c13.5,0.4,26.3,3.7,37.6,11.1c11.9,7.7,19.2,18.7,23.2,31.7c1.7,5.5,3,11,3.3,16.8
		c0.1,2,1,3,3.3,2.9c1.5-0.1,3-0.4,4.5,0.3c-1.4,1.9-3.8,0.4-5.4,1.3c-0.1,0.2-0.1,0.5-0.1,0.7c0.3,1.3-0.7,2.4-0.6,3.6
		c0,0.6-0.1,1.2-0.1,1.9c0,2.8,0,5.5,0,8.3c0,3.9-0.6,7.8-1.3,11.6C279.7,133.9,279.5,135.1,278.5,135.9z"/>
	<path id="XMLID_143_" class="st2" d="M171.1,101.8c0,0.9,0,1.8,0,2.7c-0.3,0.3-0.5,0.8-1,0.9c-0.3,0-0.6,0-0.9,0
		c-2.5-0.2-4.9-0.2-7.4-0.1c-0.2,0-0.4,0.1-0.5,0.2c0.1,0.2,0.2,0.3,0.5,0.3c0.3,0.1,0.5,0.1,0.8,0.2c2.8,0.4,5.8-0.7,8.5,0.9
		c0,8.6,0,17.2,0,25.8c-0.1,0.2-0.3,0.3-0.5,0.4c-1.7,1-3.1-3-5.2,0c-1.1,1.6-3.7,0.2-5.5,0.3c-2.1,0.1-4-1.3-5.9-1.2
		c-3,0.1-5.9,0.3-8.8-0.1c-1.3-0.2-2.5-0.7-3.8-0.7c-18.8,0.2-37.4-2.8-56.1-3.8c-7.1,0.6-14.2,0.3-21.3,0.3c-3.5,0-3.7-0.3-3.7-3.6
		c0-7.6,0-15.2,0-22.7c0-1.8,0.6-2.9,2.4-2.9c6.7-0.2,13.4-0.3,20.1,0.1c0.8,0,1.7,0.5,2.5,0.7c11,1.6,22,2.5,33.1,2
		c2.5-0.1,4.8,1.1,7.3,0.5c1.2-0.4,2.4-0.2,3.5-0.2c12.8,0.4,25.6-0.8,38.5-0.9C168.9,100.7,170.2,100.6,171.1,101.8z"/>
	<path id="XMLID_142_" class="st3" d="M85.2,99.3c-7.3,0-14.5,0.1-21.8,0c-2.3,0-3,0.6-3,2.8c0.1,7.4,0.1,14.8,0,22.2
		c0,2,0.7,2.7,2.8,2.6c6.3-0.1,12.6,0,18.8,0.1c1,0,2.2-0.3,3.1,0.4c-2,0.6-1.3,2.2-1.3,3.4c0,17.8-0.1,35.6,0.1,53.4
		c0,3.2-0.8,4.1-4.2,4c-5.3-0.3-10.6-0.2-15.9,0c-2.7,0.1-3.5-0.8-3.5-3.4c0.1-17.5,0.4-35-0.1-52.5c-0.2-9.6-0.9-19.1-0.4-28.7
		c1-19.5,0.3-39.1,0.5-58.6c0-2.6,1.1-3.2,3.5-3.2c5.4,0.1,10.8,0.2,16.2,0c2.8-0.1,3.8,0.8,3.7,3.5c-0.1,16.7-0.1,33.3-0.1,50
		C83.9,96.8,83.6,98.4,85.2,99.3z"/>
	<path id="XMLID_141_" class="st3" d="M171.1,101.8c-6.5,0-13.1,0.1-19.6,0.1c-8.6,0-17.2,0-25.9-0.1c1-0.9,2.3-0.5,3.4-0.6
		c5.7,0,11.5-0.1,17.2,0.1c2.7,0.1,3.5-0.7,3.5-3.3c-0.1-17.3-0.1-34.5-0.1-51.8c0-4.1,0.2-4.3,4.3-4.3c5.1,0,10.2,0,15.3,0
		c1,0,2.2-0.3,3.1,0.5c-1.7,0.9-1.3,2.5-1.3,3.9C171.1,64.8,171.1,83.3,171.1,101.8z"/>
	<path id="XMLID_140_" class="st3" d="M145.1,131.9c2.7-0.6,5.9,1.2,8.2-1.6c0.1-0.1,0.6,0.1,0.8,0.3c2.9,2.8,6.8,1.5,10.1,2.3
		c0.9,0.2,1.5-0.6,1.7-1.5c0.5-2.5,1.6-1.4,2.5-0.3c0.7,0.9,1.1,2.1,2.7,1.5c0,17.2,0,34.4,0,51.6c0,1.3-0.2,2.7,0.7,3.9
		c-6.2,0-12.3-0.1-18.5,0.1c-2.9,0.1-3.7-0.9-3.7-3.6c0.1-15.4,0.1-30.7,0.1-46.1C149.6,133.3,149.6,133.3,145.1,131.9z"/>
	<path id="XMLID_139_" class="st2" d="M278.5,135.9c0.8-4.9,1.8-9.7,1.8-14.6c0.6-2,0.4-4.1,0.2-6.2c-0.2-2.8,1.1-3.5,3.6-3.4
		c3,0,6,0.1,9.1,0c1.1,0,2.5,0.4,3-1.1c0.1-0.6,0.1-1.1,0-1.7c-0.1-0.4-0.3-0.7-0.7-0.9c-3-0.2-5.9-0.5-8.8,0.2
		c-0.7,0.5-1.2,1.2-1.8,1.7c-0.8,0.6-1.7,0.9-2.7,0.6c-1.2-0.5-0.4-1.3-0.3-2.1c0.1-0.7-0.3-1.1-1-1.4l0,0c0-1.2,0.9-0.9,1.6-0.9
		c5.7,0,11.4,0,17,0c1.2,0,2,0.5,3,0.9c0.4,0.2,0.8,0.4,1.1,0.6c2.8,0.6,3.9,2.5,4.2,5.1c0.1,1.3,0.5,2.5,1.1,3.7
		c2.1,2.3,2.6,4.4-0.2,6.6c-0.8,0.6-1.4,1.6-2,2.4c-1.1,1.7-0.7,2.8,1.5,3c1,0.1,2.4-0.2,2.5,1.3c0.1,1.4-1.1,1.7-2.1,2
		c-1.7,0.6-3.7,0.8-2.9,3.5c0.3,1-1.3,0.7-2.1,0.8c-5,0-9.9,0-14.9,0c-1.3-1.8-3.2-1.3-5-1.1c-0.3,0.1-0.6,0.1-0.8,0.2
		c-1.3,0.7-2.5,1.4-4,0.9l-0.3,0L278.5,135.9z"/>
	<path id="XMLID_138_" class="st4" d="M283.5,134.3c2-0.1,4.7-2.6,5.4,1.5c-3.3,0.6-6.6,0.6-9.9,0c1.8,0.6,2.2-2,3.9-1.5
		c0.3,0.8,1,0.2,1.5,0.4c0.4,0,0.8,0,1.2,0c0.4,0,0.8,0,1.2,0c-0.4-0.1-0.9,0-1.3,0c-0.5,0-0.9,0-1.4,0
		C284,134.7,283.7,134.6,283.5,134.3z"/>
	<path id="XMLID_137_" class="st5" d="M302.6,106.8c-6.8-1.1-13.7-0.4-20.6-0.5c-0.4,0-0.7,0.4-1.1,0.6c-1.1-1.4,0.3-1.3,1-1.3
		c1.8-0.1,3.7-0.1,5.5-0.2c3.5,0,7,0.1,10.5,0.1C299.6,105.5,301.4,105.3,302.6,106.8z"/>
	<path id="XMLID_136_" class="st6" d="M309,116.2c-1.1-0.6-1.2-1.7-1.3-2.6c-0.5-2.6-1.1-5-4-6.2c0.5,0.1,1.1,0.1,1.6,0.3
		c1.6,0.6,3.8,0.4,2.7,3.4C307.5,112.5,308.6,114.5,309,116.2z"/>
	<path id="XMLID_135_" class="st0" d="M190.6,105c0-15,0-29.9-0.1-44.9c0-1.3-0.1-2.6,1.9-2.5c10.4,0.3,21-0.9,31.3,1.5
		c18.8,4.5,29.7,16.3,34.4,33.9c0.7,2.5,0.9,5.1,1.4,7.6c0.7,4.9,0.5,5.3-4.5,5.3c-15,0-30,0-44.9,0c-1.1,0-2.3,0-3.4-0.1
		c-2-0.6-4,0.1-6-0.2c-0.6-0.1-1.2-0.3-1.9-0.4c-0.8-0.1-1.6-0.1-2.3,0c-0.7,0.1-1.3,0.3-1.9,0.4C193.2,105.8,191.8,106.1,190.6,105
		z"/>
	<path id="XMLID_134_" class="st0" d="M238.8,135.8c5.6,0.8,11.2,0.2,16.8,0.3c2.1,0,2.6,0.5,2,2.5c-3.6,11.5-9.9,21.2-20.9,27.4
		c-7,4-14.7,5.9-22.8,6.4c-6.8,0.4-13.6,0.1-20.4,0.1c-1.7,0-2.9-0.1-2.9-2.3c0.1-11.6,0-23.3,0-34.9c0-0.6,0.1-1.2,0.6-1.7
		c0.8-0.7,1.8-0.5,2.8-0.4c1.7,0.2,3-0.2,4.2-1.6c1.3-1.7,3.1-1.6,4.1,0.3c0.9,1.7,2.2,1.9,3.9,2.1c9.2,1.1,18.5,0.3,27.8,0.6
		C235.6,134.8,237.5,134.3,238.8,135.8z"/>
	<path id="XMLID_133_" class="st7" d="M238.8,135.8c-8.1-0.1-16.2-0.1-24.3-0.3c-2.7,0-5.4-0.3-8.1-0.4c-2.3-0.1-4.9,0.4-5-3.2
		c0-1.3-2-1.2-2.3-0.1c-1.2,3.8-4,2.5-6.6,2.1c-0.4-0.1-0.8-0.2-1.3-0.2c-0.2-0.4-0.4-0.7-0.6-1.1c0.5-0.6,0.4-1.3,0.5-2
		c-0.9-2-0.5-4.1-0.5-6.1c0-6.3,0.1-12.5,0.1-18.8c2.3-0.8,4.3-0.9,4.9,2.1c2.4,2.4,3.1-0.4,4.3-1.3c1.3-1.3,2.4-1.8,3,0.5
		c0.3,1,1.1,1,1.9,1.2c1.1,0.2,2.3,0,3.5,0.3c3.9,1.1,4.2,0.9,4.3-2.8c1.8-0.6,3.5-0.5,5.3,0c-0.3,4.5,0.9,5.3,5.4,3.3
		c1.4-0.6,2.6-0.8,4-0.1c1,0.6,2.1,0.4,3.1-0.1c1.7-0.9,3.7-0.7,5.5-0.9c0.3-0.1,0.6-0.2,0.8-0.3c0.1-0.1,0.2-0.2,0.3-0.3
		c1-1.7,2.5-1.9,4.3-1.6c0.3,0.1,0.5,0.2,0.8,0.4c0.1,0.3,0.1,0.5,0,0.8c-0.5,0.5-1.2,0.6-1.7,1c-0.2,0.2-0.3,0.3-0.5,0.5
		c-0.1,0.1-0.1,0.2-0.2,0.3c-0.1,0.3-0.1,0.7,0.1,1c0.1,0,0.2,0.1,0.3,0.2c0,0,0.3,0,0.3,0c0.9-0.6,1.7-1.3,2.8-0.9
		c1.4,0.6,2.8,1.2,4.3,0.2c0.8-0.4,1.6-1,2.6-0.9c1.7,2,4,1.6,6.3,1.5c1.1,0,2.1-0.5,3.2,0.1c0.6,0.3,1,0.7,1,1.4
		c0.2,7,0.1,14-1.8,20.8c-0.4,0.2-0.8,0.5-1.2,0.7c-0.2,0.1-0.3,0.2-0.4,0.4c-0.1,0.2,0,0.3,0.1,0.5c0.2,0.1,0.3,0.2,0.5,0.3
		c0.3,0.1,0.6,0.3,0.7,0.6c-0.6,1.6-2,1.3-3.2,1.3C249.9,135.8,244.3,135.8,238.8,135.8z"/>
	<path id="XMLID_132_" class="st8" d="M297.1,108.3c0,0.5,0,1.1,0,1.6c-0.3,1.7-1.2,2.4-3.2,2.3c-4.5-0.3-9,0.3-13.5-0.3
		c0.2-0.4,0.4-0.7,0.5-1.1c1.9-0.7,4.3-0.5,5.2-2.9c3.4-0.7,6.8-0.2,10.3-0.2C296.7,107.8,297,108,297.1,108.3z"/>
	<path id="XMLID_131_" class="st9" d="M217.7,106.2c-1.7-1-3.3-1-4.9,0c-1,0.9-2.1,0.9-3.2,0.3c-0.5-0.5-0.6-0.9-0.2-1.5
		c15.2,0,30.4,0,45.6-0.1c5.5,0,4.3,0.1,4.5-4.4c1.1,1.5,0.4,3.2,0.6,4.8c-0.2,0.3-0.5,0.6-0.9,0.7c-4.1,0.6-8.2,0.2-12.3,0.3
		c-0.8,0-1.5,0-2.3,0c-0.6,0-1.1,0-1.7-0.1c-2-0.7-4-0.6-6,0c-0.9,0.1-1.9,0.1-2.8,0.1c-2,0-4,0.1-6.1,0c-0.7,0-1.4,0-2.1,0
		c-1.5-0.1-3,0-4.3,0.7C220.2,107.2,218.8,107.3,217.7,106.2z"/>
	<path id="XMLID_130_" class="st10" d="M259.7,109.8c-3.5,1.3-6.9,1.9-9.8-1.1c-0.8-1.2-0.1-1.8,0.9-2.3c3.1,0.1,6.3-1,9.4,0.7
		C260.5,108.1,261,109.1,259.7,109.8z"/>
	<path id="XMLID_129_" class="st11" d="M280.4,111.9c4.4,0,8.8,0,13.3-0.1c0.1,0,2.9,1.4,1.3-1.2c-0.3-0.6,1.4-0.4,2.1-0.7
		c0.7,1.8,0.2,2.7-2,2.6c-3.7-0.1-7.5,0.1-11.3-0.1c-2.5-0.1-3.1,0.8-3.1,3c0.1,1.9,0.6,3.9-0.5,5.7
		C280.4,118.1,280.4,115,280.4,111.9z"/>
	<path id="XMLID_128_" class="st12" d="M160,105c0.2,0,0.4-0.1,0.6-0.1c3.1-0.4,6.1-0.4,9.2,0c0.2,0,0.4,0,0.6,0
		c0.4,0.1,0.4,0.4,0.6,0.7c0,0.2,0,0.4,0,0.5c-3.3,0.6-6.5,0.5-9.8,0.1c-0.2,0-0.4,0-0.6,0C160.3,105.9,159.6,105.8,160,105z"/>
	<path id="XMLID_127_" class="st13" d="M195.1,108.8c-0.3-2.5-1.6-3.9-4.4-3.1c0-0.3,0-0.5,0-0.8c1.5,0,3,0,4.5,0
		c0.4-0.4,1-0.2,1.3-0.6c0.8,0,1.7,0,2.5,0c0.4,0.2,0.8,0.4,1,0.9c-0.1,0.3-0.3,0.5-0.5,0.7C197.5,106.2,196,107.1,195.1,108.8z"/>
	<path id="XMLID_126_" class="st5" d="M286.2,108.2c-0.8,2.7-3,2.7-5.2,2.7c-1.4-1.3,1.5-2.6,0-3.9c0.5,0.1,0.9,0.2,1.2,0.8
		c0.4,0.7-1,2,0.6,2.3c1.3,0.2,1.8-0.8,2.4-1.7c0.2-0.3,0.6-0.5,1-0.8c0.1,0.1,0.2,0.2,0.3,0.3C286.3,107.9,286.2,108,286.2,108.2z"
		/>
	<path id="XMLID_125_" class="st14" d="M260.1,107.1c-3.2-0.4-6.5-0.2-9.7-0.1c0-1.4,1.1-0.9,1.8-1c2.4-0.2,4.9,0.4,7.3-0.4
		c0.2,0,0.4-0.1,0.6-0.1C260.3,106,260.7,106.5,260.1,107.1z"/>
	<path id="XMLID_124_" class="st15" d="M161.3,106.3c3.3,0,6.5-0.1,9.8-0.1c0,0.2,0,0.4,0,0.6C167.8,106.5,164.5,107.5,161.3,106.3z
		"/>
	<path id="XMLID_123_" class="st16" d="M256.9,132.5c0.5-0.9,1.2-0.6,1.9-0.5c-0.1,0.8-0.1,1.6-0.2,2.4c-0.4-0.2-0.8-0.3-1.2-0.5
		C257.2,133.5,257.1,133,256.9,132.5z"/>
	<path id="XMLID_122_" class="st17" d="M191.1,130.6c0.9,0.9,0.4,1.5-0.5,2C190.6,131.9,190.4,131.1,191.1,130.6z"/>
	<path id="XMLID_121_" class="st15" d="M171.1,105.6c-0.2-0.2-0.4-0.4-0.6-0.7c0.2-0.2,0.4-0.4,0.7-0.6
		C171.1,104.8,171.1,105.2,171.1,105.6z"/>
	<path id="XMLID_120_" class="st18" d="M152.9,104.9c1,0.4,2.8-0.8,3.1,1.1c0.2,1.1-1.1,1.6-2.1,1.4c-1.4-0.3-3.3-0.5-3.6-2
		C150.1,104.7,151.9,105.2,152.9,104.9z"/>
	<path id="XMLID_119_" class="st15" d="M169.8,105c-3.1,0-6.1,0-9.2,0C163.7,104,166.7,104,169.8,105z"/>
	<path id="XMLID_118_" class="st15" d="M160,105c0.2,0.4,0.4,0.8,0.6,1.2C159.9,106.1,158.9,106.1,160,105z"/>
	<path id="XMLID_117_" class="st3" d="M61.2,157.7c0-9,0-17.9,0-26.9c0-1.9,0.6-2.4,2.6-2.9c5.9-1.2,11.6,0.2,17.4,0.1
		c2.5-0.1,2.1,1.6,2.1,3c0,10.2,0,20.4,0,30.6c0,7.7-0.1,15.4,0,23.1c0,2-0.6,2.8-2.8,2.7c-5.5-0.1-11.1-0.1-16.6,0
		c-2.4,0.1-2.9-0.9-2.8-2.9C61.2,175.6,61.2,166.7,61.2,157.7z"/>
	<path id="XMLID_116_" class="st5" d="M286.1,107.5c3.5-1,7-1,10.4,0c-0.2,0.1-0.3,0.2-0.5,0.3C292.8,107.9,289.5,108.2,286.1,107.5
		L286.1,107.5z"/>
	<path id="XMLID_115_" class="st19" d="M283.5,134.3c0.2,0,0.5,0,0.7,0c0.2,0.1,0.3,0.3,0.2,0.4c-0.1,0.1-0.1,0.2-0.2,0.2
		c-0.4-0.3-1.5,0.7-1.2-0.7C283.1,134.3,283.3,134.3,283.5,134.3z"/>
	<path id="XMLID_114_" class="st5" d="M297.1,108.3c-0.2,0-0.4-0.1-0.6-0.2c-0.2-0.1-0.3-0.3-0.2-0.4c0.1-0.1,0.1-0.2,0.2-0.2
		c0,0,0,0,0,0C296.8,107.8,297,108,297.1,108.3z"/>
	<path id="XMLID_113_" class="st20" d="M285.5,134.4c0.7,0.1,1.4-0.2,2,0.3c-0.6,0.5-1.4,0.2-2,0.3c-0.2-0.1-0.3-0.3-0.2-0.4
		C285.4,134.4,285.4,134.4,285.5,134.4z"/>
	<path id="XMLID_112_" class="st21" d="M285.5,134.4c0,0.2,0,0.4,0,0.6c-0.4,0-0.9,0-1.3,0c0-0.2,0-0.4,0-0.6
		C284.6,134.4,285.1,134.4,285.5,134.4z"/>
	<path id="XMLID_111_" class="st9" d="M199.7,105.6c0-0.2,0-0.4,0-0.6c0.2-0.3,0.4-0.3,0.7,0c2,0.3,4-0.8,5.9,0.1
		c0.3,0.4,0.3,0.8,0.1,1.2c-1.4,0.4-1.9,1.2-1.5,2.6c-1.4-0.1-2.8,0.1-2.9-1.9c-0.1-1.1-0.3-1.1-1.5,0.1
		C199.8,106.7,199.6,106.2,199.7,105.6z"/>
	<path id="XMLID_110_" class="st22" d="M206.2,106.2c0-0.4,0-0.8,0-1.2c1,0,2.1,0,3.1,0c0,0.4,0,0.8,0,1.2
		C208.4,107.1,207.3,107.1,206.2,106.2z"/>
	<path id="XMLID_109_" class="st23" d="M200.3,105c-0.2,0-0.4,0-0.7,0c-0.2-0.2-0.4-0.4-0.7-0.6C199.5,104.4,200,104.5,200.3,105z"
		/>
	<path id="XMLID_108_" class="st23" d="M196.5,104.4c-0.3,0.5-0.8,0.6-1.3,0.6C195.4,104.5,195.9,104.4,196.5,104.4z"/>
	<path id="XMLID_107_" class="st24" d="M217.7,106.2c1.5,0.1,2.9,0.2,4.4,0.3c1.1-0.8,2.5,0.1,3.6-0.5c0.9-0.1,1.7,0.2,2.5,0.5
		c0.7,0.3,1.3,0.7,1.7,1.4c0.3,0.5,0.6,1,0.2,1.6c-0.5,0.6-1.5,1.1-1.9,0.8c-2.5-2-4.6-0.4-6.9,0.3c-1.4,0.5-3.4,0.8-4.4-0.8
		C216.2,108.6,216.4,107.2,217.7,106.2z"/>
	<path id="XMLID_106_" class="st25" d="M206.2,106.2c1.1,0,2.1,0,3.2,0c1.1,0,2.2,0,3.4,0c0.7,0.6,1.7,1.2,0.9,2.2
		c-0.9,1.3-2.6,2-3.9,1.4c-1.7-0.8-3.3-0.7-5-1c-0.2-1-2.4-0.6-1.7-2.1C203.8,105.4,205.1,106.2,206.2,106.2z"/>
	<path id="XMLID_105_" class="st26" d="M236,113c1.4-0.2,1.2,0.9,1.2,1.6c0,2.3-0.1,4.6,0,6.8c0.2,2.7,0.3,5.1-3.7,4.3
		c-0.2-0.2-0.3-0.5-0.3-0.8c1.6-1.9,1.3-4.3,1.4-6.5C236.8,117,235.2,114.7,236,113z"/>
	<path id="XMLID_104_" class="st27" d="M247.7,110c-1.7,1.5-3.1,0.6-4.5-0.6c-1.9-1.5-2,1.3-3.2,1.2l0,0c-0.6-0.5-0.7-1.1-0.5-1.8
		c0.1-0.2,0.2-0.5,0.3-0.7c0.3-0.4,0.8-0.6,1.3-0.8c0.3-0.1,0.7-0.3,1-0.5l0,0c0.7-0.8,1.7-0.7,2.6-1c0.6,0,1.3,0,1.9,0.1
		C249.8,107.1,249.9,107.2,247.7,110z"/>
	<path id="XMLID_103_" class="st23" d="M199.7,105.6c0.6,0.3,0.7,0.9,0.7,1.4c-1.4,1.6-2.4,4.2-5.3,1.8
		C194.7,105.3,197.3,105.6,199.7,105.6z"/>
	<path id="XMLID_102_" class="st28" d="M242,121.7c-0.6,1.4,0.7,3.9-1,3.9c-1.7,0-0.8-2.4-0.8-3.7c0-1.5-0.8-4.4,0.7-4.3
		C242.9,117.7,241.1,120.4,242,121.7z"/>
	<path id="XMLID_101_" class="st29" d="M225,123.7c0.1-1.8,0.1-3.5,0.2-5.3c0-0.5,0.3-1,0.9-1c0.2,0,0.7,0.4,0.7,0.6
		c-0.1,2.6,0.8,5.3-0.5,7.8c0,0-0.3-0.1-0.5-0.2C225.3,125,224.6,124.5,225,123.7z"/>
	<path id="XMLID_100_" class="st30" d="M247.7,110c1.2-1.7,1.1-3.1-1.3-3.7c-0.3-0.2-0.3-0.5,0-0.7c4.3,0,8.7,0,13,0
		c-1.6,1.3-3.5,0.4-5.2,0.7c-1.3,0.2-2.8-0.5-3.9,0.7c-0.4,0.5-0.7,1.1-0.6,1.7C249.1,109.1,248.4,109.5,247.7,110z"/>
	<path id="XMLID_99_" class="st31" d="M230.3,109.5c-0.2-0.4-0.5-0.9-0.7-1.3c1.1-1,2.4-1.4,3.8-1.8c1.4-0.2,2.9-0.7,4.1,0.5
		c0.2,0.5,0.2,0.9-0.2,1.3l0,0c-0.2,0.3-0.4,0.5-0.7,0.6C234.5,108.7,232.3,108.5,230.3,109.5z"/>
	<path id="XMLID_98_" class="st32" d="M250.5,117.9c2.5,1.9,2.8,4.1,0.7,6.5c-0.1,0-0.3-0.1-0.4-0.1c-0.3-0.1-0.5-0.3-0.6-0.5
		c-0.1-0.2-0.2-0.5-0.3-0.8c-0.2-1.2-0.1-2.4-0.4-3.6c0-0.3,0-0.5,0.1-0.8c0.1-0.2,0.3-0.4,0.6-0.6
		C250.2,118.1,250.3,118,250.5,117.9z"/>
	<path id="XMLID_97_" class="st24" d="M220.5,125c-1.5-2.1-0.6-4.4-0.8-6.6c0-0.3,0.3-0.9,0.5-1c0.7-0.1,0.9,0.4,0.9,1
		c0.1,1.8,0.1,3.5,0.1,5.3c0,0.1,0,0.2-0.1,0.3c-0.1,0.3-0.2,0.6-0.4,0.8C220.7,124.9,220.6,125,220.5,125z"/>
	<path id="XMLID_96_" class="st33" d="M236,113c-0.2,2,0.8,4.2-1.3,5.7c-1,0.9-2.3,1.2-3.6,1.4c-0.7-0.2-0.9-0.7-1-1.3
		c-0.1-0.3-0.1-0.5,0.2-0.8l0,0c0.2-0.3,0.4-0.5,0.7-0.6c0.4,0,0.8-0.1,1.2-0.1c0.3,0.3,0.6,0.4,1,0.4c0.4,0,0.7,0,1-0.3
		C236.8,116.8,234.3,114.1,236,113z"/>
	<path id="XMLID_95_" class="st34" d="M217.2,117.5c0,1.4-1.5,0.6-2,1.2c-0.4,1.3-0.1,2.6-0.2,3.9c-0.1,0.6-0.1,1.3-1,1.1l0,0
		c-0.9-1.8,0.4-3.9-0.7-5.6l0,0.1c-0.1-0.3-0.1-0.5,0-0.8l0,0c0.3-0.1,0.5-0.4,0.7-0.7l-0.1,0c0.3-0.2,0.5-0.2,0.8-0.2
		C215.3,117.5,216.5,116.9,217.2,117.5z"/>
	<path id="XMLID_94_" class="st35" d="M239.7,131.4c0.8,0.1,1.5,0.4,1.5,1.2c0.1,0.9-0.7,1.2-1.5,1.2c-0.7,0-1.6,0-1.7-0.9
		C238,131.9,238.8,131.5,239.7,131.4z"/>
	<path id="XMLID_93_" class="st36" d="M244.5,120c0-0.9,0.5-1.5,1.3-1.9c0.1,0,0.3,0.1,0.4,0.1c0.4,0.1,0.8,0.3,1.1,0.6
		c0.1,0.3,0.1,0.5,0.1,0.8c-0.4,1-0.8,2-0.7,3c0,0.3,0.1,0.5,0.1,0.8c0,0.1,0,0.3,0.1,0.4c0,0.3-0.1,0.5-0.2,0.8
		c-0.2,0.2-0.5,0.3-0.7,0.3c-0.3,0-0.5-0.1-0.7-0.3l0,0c-0.2-0.2-0.4-0.4-0.5-0.6c0-0.2-0.1-0.4-0.1-0.6
		C244.8,122.1,244.8,121,244.5,120z"/>
	<path id="XMLID_92_" class="st37" d="M219.2,131.9c1,0.1,1.9,0.4,2,1.5c0,0.1-0.5,0.3-0.8,0.3c-1.2-0.3-2.6-0.2-3.4-1.3
		c-0.1-0.1,0-0.6,0.2-0.8C218,131.1,218.7,131.1,219.2,131.9L219.2,131.9z"/>
	<path id="XMLID_91_" class="st38" d="M230.3,118.8c0.2,0.4,0.4,0.8,0.6,1.3c0.9,0.8,0.7,1.9,0.6,2.9c-0.1,0.3-0.2,0.6-0.3,0.8
		c-0.2,0.2-0.4,0.4-0.6,0.6c-0.1,0-0.3,0.1-0.4,0.1c-0.2,0-0.3-0.1-0.5-0.1c-0.6-1.7-0.5-3.3-0.1-5l0,0
		C229.8,119.2,229.9,118.8,230.3,118.8z"/>
	<path id="XMLID_90_" class="st39" d="M250.5,125.1c-1.6,1.4-3.2,1.4-4.7,0c0.1-0.1,0.2-0.2,0.2-0.3c0.6,0,0.9-0.6,1.5-0.8
		c0.8-0.2,1.5-0.2,2.2,0.1C250.1,124.3,250.4,124.7,250.5,125.1z"/>
	<path id="XMLID_89_" class="st39" d="M245.8,118c1.5-1.4,3.1-1.4,4.7-0.1c0,0-0.1,0.3-0.1,0.3c-0.2,0.1-0.4,0.3-0.5,0.5l-0.3,0.2
		c-0.8,0.6-1.6,0.6-2.4-0.1l-0.2-0.1c-0.3-0.3-0.7-0.2-1-0.4L245.8,118z"/>
	<path id="XMLID_88_" class="st40" d="M225,123.7c0.2,0.6,0.5,1.3,0.7,1.9c-0.9-0.7-1.7,0.1-2.6,0.1c-0.5-0.5-0.9-0.4-1.4,0
		c-0.6,0-1-0.1-1.3-0.7c0,0,0.1-0.2,0.1-0.2c0.3-0.3,0.3-0.7,0.5-1c0,0,0.2-0.1,0.2-0.1C222.5,124.8,223.7,124.5,225,123.7z"/>
	<path id="XMLID_87_" class="st41" d="M204.1,116.2c0.2-1.1,0.8-1.8,2-1.8c0.6,0.9,2.5-0.7,2.6,1.2c-1.5,0-3.1-0.1-3.3,1.9
		C204.3,117.7,204.4,116.8,204.1,116.2z"/>
	<path id="XMLID_86_" class="st42" d="M237.3,108.1c0-0.4,0-0.8,0-1.1c-0.3-0.4-1-0.6-0.6-1.4c2.2,0,4.3,0,6.5,0
		c0,1.1-0.6,1-1.3,0.6C240.1,106.2,238.2,106,237.3,108.1z"/>
	<path id="XMLID_85_" class="st28" d="M213.9,123.8c1.6-1.4-0.1-3.6,1.2-5.1c0.1,1.8,0.1,3.7,0.2,5.5c0.2,0.7-0.1,1-0.9,0.8
		C214,124.8,213.9,124.3,213.9,123.8z"/>
	<path id="XMLID_84_" class="st43" d="M217.2,117.5c-0.9-0.1-1.9,0.2-2.5-0.6c-0.3-0.2-0.4-0.4-0.7-0.6c-0.1-0.5-0.2-1.1,0.3-1.4
		c0.7-0.4,1,0.2,1,0.7C215,117,216.5,116.8,217.2,117.5z"/>
	<path id="XMLID_83_" class="st44" d="M209.3,121.4c-0.4-0.2-0.8-0.4-1.2-0.7c-0.2-0.3-0.6-0.4-0.9-0.8c-0.1-0.3,0-0.5,0.2-0.7
		c0.3-0.1,0.5-0.1,0.7,0.2c1.1,0.1,1.8,0.7,2.5,1.3c0.2,0.1,0.3,0.3,0.2,0.4c0,0.2-0.1,0.3-0.1,0.3c-0.2,0.2-0.5,0.2-0.8,0.3
		C209.8,121.6,209.5,121.5,209.3,121.4z"/>
	<path id="XMLID_82_" class="st45" d="M214.5,125.1c0.3-0.3,0.6-0.6,0.9-0.8c0.6,0.5,2.5-0.1,1.8,1.3
		C216.8,126.4,215.3,126,214.5,125.1z"/>
	<path id="XMLID_81_" class="st46" d="M211.3,133.1l-0.3,0l-0.3,0c-1.1-0.6-1.2-1.4-0.7-2.5c0.8-0.1,1.3,0.4,1.9,0.7
		C212.8,132.2,212,132.6,211.3,133.1z"/>
	<path id="XMLID_80_" class="st28" d="M213.2,118.1c1.5,1.7,0.5,3.8,0.7,5.6C213,122,213.9,120,213.2,118.1z"/>
	<path id="XMLID_79_" class="st47" d="M229.6,119.4c0,1.7,0,3.3,0.1,5C228.5,122.7,228.6,121,229.6,119.4z"/>
	<path id="XMLID_78_" class="st48" d="M208.8,115.6c-0.6-1-2-0.2-2.6-1.2c1.5-0.5,2.9-0.4,4.1,0.6c-0.1,0.1-0.1,0.2-0.2,0.3
		c-0.2,0.2-0.4,0.3-0.6,0.5C209.2,115.9,209,115.8,208.8,115.6L208.8,115.6z"/>
	<path id="XMLID_77_" class="st49" d="M241.9,114.6c-0.2,0.2-0.5,0.6-0.8,0.6c-0.6,0.1-1-0.3-0.9-0.9c0.1-0.3,0.5-0.8,0.8-0.8
		C241.5,113.4,241.8,113.9,241.9,114.6z"/>
	<path id="XMLID_76_" class="st50" d="M210.2,125c-0.2,0.2-0.5,0.4-0.7,0.6c-1.3,0.6-2.6,0.8-3.9,0.1l0,0c-0.1-0.1-0.2-0.2-0.3-0.3
		c0.1-0.3,0.3-0.5,0.6-0.5c1-0.2,2,0.3,2.9-0.3l0,0c0.2-0.2,0.4-0.3,0.7-0.2c0.2,0.1,0.4,0.3,0.6,0.5
		C210.1,124.8,210.1,124.9,210.2,125z"/>
	<path id="XMLID_75_" class="st51" d="M229.5,128.7c-0.4,0.8-1,1.7-1.9,0.8c-0.8-0.8-0.1-1.5,0.7-2c0.1,0.1,0.3,0.3,0.4,0.4
		c0.1,0.1,0.3,0.3,0.4,0.4C229.3,128.4,229.4,128.6,229.5,128.7z"/>
	<path id="XMLID_74_" class="st52" d="M240,110.6c0.9-0.8,1.2-3.2,3.2-1.2c-0.8,0-1.7-0.2-2,1C241.1,111.2,240.6,111.3,240,110.6z"
		/>
	<path id="XMLID_73_" class="st53" d="M244.5,120c1,1.1,1,2.1,0,3.2C243.9,122.1,243.9,121,244.5,120z"/>
	<path id="XMLID_72_" class="st54" d="M204.1,116.2c0.4,0.4,0.9,0.9,1.3,1.3c0.1,0.2,0.2,0.4,0.2,0.6c-0.1,0.4-0.4,0.7-0.8,0.8
		C203.9,118.1,203.5,117.3,204.1,116.2z"/>
	<path id="XMLID_71_" class="st36" d="M209.5,124.4c-0.2,0-0.5,0-0.7,0c0.8-0.9,0.9-1.9,0.5-3c0.3,0,0.5-0.1,0.8-0.1
		c0.8,0.7,0.6,1.5,0.6,2.4c-0.1,0.3-0.2,0.5-0.4,0.8C210,124.6,209.7,124.6,209.5,124.4z"/>
	<path id="XMLID_70_" class="st55" d="M205.5,125.7c1.3,0,2.6,0,3.9-0.1c-0.4,0.2-0.8,0.5-1.3,0.7c-0.7,0.5-1.3,0.4-2,0
		C205.9,126.1,205.7,125.9,205.5,125.7z"/>
	<path id="XMLID_69_" class="st36" d="M210.6,121.3c0-0.2,0-0.4,0.1-0.5c1.3,1.2,1.1,2.5,0.1,3.7c-0.1-0.1-0.2-0.2-0.4-0.3
		C210.4,123.2,210.3,122.2,210.6,121.3z"/>
	<path id="XMLID_68_" class="st56" d="M208.8,124.4c-0.9,1-2.2,0.5-3.3,0.6c-0.2-0.2-0.1-0.5,0.1-0.7
		C206.7,124.3,207.7,124.4,208.8,124.4z"/>
	<path id="XMLID_67_" class="st53" d="M207.5,119.5c0,0.2,0,0.3,0,0.5c-0.2,0.3-0.5,0.3-0.8,0.1c-0.4-0.2-0.8-0.4-1.2-0.7
		c-0.1-0.7,0-1.1,0.9-0.7c0.2,0,0.3,0,0.5,0.1C207.1,119,207.5,119,207.5,119.5z"/>
	<path id="XMLID_66_" class="st43" d="M233.5,124.9c0,0.3,0,0.5,0,0.8c-0.7,0.6-1.3,0.6-2,0c0,0,0.1-0.3,0.1-0.3
		c0.1-0.2,0.2-0.3,0.4-0.5c0.2-0.1,0.4-0.2,0.6-0.3C232.9,124.6,233.2,124.6,233.5,124.9z"/>
	<path id="XMLID_65_" class="st57" d="M203.9,127.3c-0.1-0.1-0.4-0.3-0.5-0.5c-0.1-0.4,0.2-0.5,0.5-0.5c0.2,0.1,0.6,0.2,0.6,0.5
		C204.7,127.1,204.5,127.3,203.9,127.3z"/>
	<path id="XMLID_64_" class="st58" d="M206.2,126.3c0.7,0,1.3,0,2,0C207.5,128.2,206.8,127.2,206.2,126.3z"/>
	<path id="XMLID_63_" class="st59" d="M219.8,127.4c-0.2,0.1-0.4,0.3-0.6,0.5c-0.1-0.2-0.3-0.4-0.3-0.7c0-0.1,0.2-0.4,0.4-0.4
		C219.7,126.6,219.7,126.9,219.8,127.4z"/>
	<path id="XMLID_62_" class="st60" d="M196.4,131.8c-1.8,0.2-2.6-0.2-1.4-2c0.1,0,0.2,0.1,0.3,0.1c0.3,0.2,0.6,0.4,0.8,0.7
		c0.2,0.2,0.3,0.4,0.4,0.6C196.7,131.5,196.6,131.7,196.4,131.8z"/>
	<path id="XMLID_61_" class="st61" d="M210,130.6c-0.1,0.9,0.1,1.7,0.7,2.5C208.8,132.7,209.2,131.7,210,130.6z"/>
	<path id="XMLID_60_" class="st62" d="M241.9,106.3c0.5,0,1-0.1,1.3-0.6c0.4,0,0.9,0,1.3,0c0.2,0.2,0.3,0.3,0.2,0.5
		c-0.1,0.2-0.1,0.2-0.2,0.2c-0.9,0.2-1.7,0.4-2.6,0.6C242,106.7,241.9,106.5,241.9,106.3z"/>
	<path id="XMLID_59_" class="st63" d="M256.9,132.5c1.2,0.1,1.4,0.6,0.6,1.4c0,0-0.3,0.1-0.3,0.1L257,134
		C256.3,133.5,256.5,133,256.9,132.5L256.9,132.5z"/>
	<path id="XMLID_58_" class="st44" d="M231.5,125.7c-0.7-0.1-1.2-0.5-1.4-1.2c0,0,0.2-0.2,0.2-0.2c0.2-0.2,0.4-0.3,0.5-0.5l0.2-0.1
		c0.9-0.1,1.3,0.4,1.3,1.2l-0.2,0.2c-0.2,0.2-0.3,0.3-0.5,0.5L231.5,125.7z"/>
	<path id="XMLID_57_" class="st52" d="M240,108.2c0,0.8,0,1.6,0,2.4c0,0-0.3,0-0.3,0l-0.3,0c-0.6-0.8-0.6-1.6,0-2.5l0,0
		C239.6,107.8,239.8,107.9,240,108.2z"/>
	<path id="XMLID_56_" class="st64" d="M205.6,124.3c0,0.2-0.1,0.5-0.1,0.7c0,0,0,0,0,0c-0.4,0.4-0.9,0.3-1.3,0l0,0
		c-0.2-0.2-0.4-0.4-0.6-0.6c-0.1-0.2,0-0.4,0.1-0.5c0.4-0.5,0.7-0.4,1.1,0l0,0C205.1,123.9,205.3,124.3,205.6,124.3L205.6,124.3z"/>
	<path id="XMLID_55_" class="st61" d="M211.3,133.1c0.4-0.5,0.7-1.1,0.6-1.8C213.2,132.4,212.8,132.9,211.3,133.1z"/>
	<path id="XMLID_54_" class="st65" d="M208.8,115.6c0.2,0,0.4-0.1,0.7-0.1c0.2-0.1,0.4-0.3,0.5-0.5c0.1-0.1,0.2-0.1,0.4,0
		c0.5,0.3,0.7,0.8,0.1,1.1C209.7,116.4,209.2,116.1,208.8,115.6z"/>
	<path id="XMLID_53_" class="st66" d="M228.3,128.1c0-0.2,0-0.4,0-0.6c0.9-0.1,2.2-0.5,1.2,1.2c-0.2,0-0.4,0-0.6,0
		C228.7,128.5,228.5,128.3,228.3,128.1z"/>
	<path id="XMLID_52_" class="st67" d="M240.9,128.9c0.1-0.2,0.1-0.4,0.3-0.5c0.1,0,0.3,0.1,0.5,0.2c-0.1,0.2-0.1,0.4-0.2,0.5
		C241.3,129.2,241.1,129,240.9,128.9z"/>
	<path id="XMLID_51_" class="st42" d="M239.4,108.2c0,0.8,0,1.6,0,2.5C238.4,109.8,238.4,109,239.4,108.2z"/>
	<path id="XMLID_50_" class="st54" d="M250.5,125.1c-0.3-0.3-0.6-0.6-0.8-0.8c0-0.5,0.2-0.7,0.7-0.6l0.1,0.2
		c0.2,0.1,0.3,0.3,0.5,0.5c0,0,0.3,0.1,0.3,0.1C251,124.7,250.7,124.9,250.5,125.1z"/>
	<path id="XMLID_49_" class="st68" d="M206.4,118.7c-0.3,0.2-0.6,0.5-0.9,0.7c-0.2-0.2-0.5-0.4-0.7-0.5c0.3-0.3,0.6-0.5,0.8-0.8
		C205.9,118.3,206.1,118.5,206.4,118.7z"/>
	<path id="XMLID_48_" class="st69" d="M195,129.8c0.7-0.5,1.4-0.7,1.9,0.2c-0.2,0.2-0.4,0.3-0.6,0.4c-0.4,0.1-0.8-0.1-1.1-0.3
		C195.1,130,195.1,129.9,195,129.8z"/>
	<path id="XMLID_47_" class="st42" d="M242,106.9c-0.2,0.2-0.5,0.4-0.7,0.6c-0.3,0.3-0.7,0.3-1.1,0.2c-0.1-0.1-0.2-0.2-0.3-0.3
		C240.5,106.8,241.2,106.9,242,106.9z"/>
	<path id="XMLID_46_" class="st16" d="M256.9,132.5c0,0.5,0.1,0.9,0.1,1.4C255.6,133.6,256.3,133.1,256.9,132.5z"/>
	<path id="XMLID_45_" class="st70" d="M204.2,125c0.4,0,0.9,0,1.3,0c0,0.2,0,0.4,0,0.6C205,125.7,204.5,125.5,204.2,125z"/>
	<path id="XMLID_44_" class="st71" d="M221.7,125.7c0.4-0.7,0.9-0.7,1.4,0C222.7,125.7,222.2,125.7,221.7,125.7z"/>
	<path id="XMLID_43_" class="st72" d="M207.5,119.5c-0.2-0.2-0.4-0.4-0.6-0.7c0.5,0,1,0.1,1.3,0.6
		C207.9,119.4,207.7,119.4,207.5,119.5z"/>
	<path id="XMLID_42_" class="st60" d="M196.3,130.1c0.2,0,0.4,0,0.6-0.1c0,0.4,0,0.8,0.1,1.2c-0.2,0.2-0.4,0.2-0.6,0l0,0
		C196,130.9,196,130.5,196.3,130.1z"/>
	<path id="XMLID_41_" class="st48" d="M233.5,118.1c-0.6,0-1-0.1-1.3-0.6c0.5,0,0.9,0,1.4,0c0.1,0.2,0.2,0.3,0.1,0.4
		C233.6,118,233.5,118.1,233.5,118.1z"/>
	<path id="XMLID_40_" class="st47" d="M230.3,118.8c-0.2,0.2-0.5,0.4-0.7,0.6c0-0.5,0.1-1,0.7-1.2
		C230.3,118.4,230.3,118.6,230.3,118.8z"/>
	<path id="XMLID_39_" class="st72" d="M206.7,120.1c0.3,0,0.5-0.1,0.8-0.1c0.2,0.2,0.4,0.5,0.6,0.7
		C207.6,120.5,207.2,120.3,206.7,120.1z"/>
	<path id="XMLID_38_" class="st70" d="M204.8,123.8c-0.4,0-0.8,0-1.1,0C204.1,123,204.4,123.2,204.8,123.8z"/>
	<path id="XMLID_37_" class="st70" d="M203.6,124.3c0.2,0.2,0.4,0.4,0.6,0.6C204,124.8,203.8,124.6,203.6,124.3z"/>
	<path id="XMLID_36_" class="st42" d="M236.6,108.7c0.2-0.2,0.5-0.4,0.7-0.6C237.1,108.3,236.9,108.5,236.6,108.7z"/>
	<path id="XMLID_35_" class="st36" d="M210.8,124.5c-0.2,0.2-0.4,0.4-0.7,0.6c0,0-0.2-0.1-0.2-0.1c-0.1-0.2-0.1-0.4,0.1-0.5l0,0
		c0.1-0.2,0.3-0.3,0.5-0.1L210.8,124.5z"/>
	<path id="XMLID_34_" class="st28" d="M213.9,116.2c0.2,0.2,0.4,0.4,0.7,0.6c-0.2,0-0.5-0.1-0.7-0.1
		C213.8,116.6,213.8,116.4,213.9,116.2z"/>
	<path id="XMLID_33_" class="st73" d="M245.1,124.4c0.2,0,0.5,0,0.7,0c0.2,0.1,0.3,0.2,0.2,0.3c0,0.1-0.1,0.2-0.1,0.2
		c0,0-0.1,0.2-0.1,0.2C245.6,124.9,245.4,124.6,245.1,124.4z"/>
	<path id="XMLID_32_" class="st42" d="M240,108.2c-0.2,0-0.4,0-0.7,0c0.2-0.2,0.4-0.5,0.6-0.7c0,0,0.2,0.2,0.2,0.2
		C240.3,107.8,240.3,108,240,108.2L240,108.2z"/>
	<path id="XMLID_31_" class="st70" d="M205.6,124.3c-0.2-0.2-0.5-0.3-0.7-0.5C205.1,124,205.4,124.1,205.6,124.3z"/>
	<path id="XMLID_30_" class="st26" d="M233.5,118.1c0-0.2,0-0.4,0-0.7c0.2,0,0.4,0,0.6,0.1C233.9,117.7,233.7,117.9,233.5,118.1z"/>
	<path id="XMLID_29_" class="st69" d="M196.4,131.3c0.2,0,0.4,0,0.6,0c-0.2,0.2-0.4,0.4-0.6,0.6
		C196.4,131.6,196.4,131.4,196.4,131.3z"/>
	<path id="XMLID_28_" class="st47" d="M231,117.5c-0.2,0.2-0.5,0.4-0.7,0.6C230.5,118,230.7,117.8,231,117.5z"/>
	<path id="XMLID_27_" class="st28" d="M213.3,117.4c0,0.3,0,0.5,0,0.8c-0.2-0.2-0.3-0.3-0.5-0.5C213,117.6,213.1,117.5,213.3,117.4z
		"/>
	<path id="XMLID_26_" class="st28" d="M213.9,116.8c-0.2,0.2-0.5,0.4-0.7,0.7C213.5,117.2,213.7,117,213.9,116.8z"/>
	<path id="XMLID_25_" class="st73" d="M244.6,123.8c0.2,0.2,0.4,0.4,0.5,0.6C245,124.2,244.8,124,244.6,123.8z"/>
	<path id="XMLID_24_" class="st74" d="M296.5,107.5c0,0.2,0,0.4,0,0.6c-3.5,0.6-6.9,0.1-10.4,0c0-0.2,0-0.4,0-0.6
		C289.6,107.5,293.1,107.5,296.5,107.5z"/>
	<path id="XMLID_23_" class="st75" d="M233.5,106.9c-1.2,0.6-2.4,1.5-3.9,1.3c-0.4-0.4-0.9-0.9-1.3-1.3c-0.4-0.3-1.1-0.5-0.7-1.2
		c2.2,0,4.3,0,6.5,0C234.5,106.3,233.9,106.5,233.5,106.9z"/>
	<path id="XMLID_22_" class="st76" d="M225.7,106.4c-1.1,1.1-2.4,0-3.6,0.2c0.7-1.9,2.3-0.7,3.5-0.9
		C226,105.8,226.1,106.1,225.7,106.4z"/>
	<path id="XMLID_21_" class="st77" d="M233.5,106.9c0.2-0.4,0.4-0.8,0.7-1.2c0.9,0,1.7,0,2.6,0c0.2,0.5,0.4,0.9,0.6,1.4
		C236.1,106.3,234.8,106.5,233.5,106.9z"/>
	<path id="XMLID_20_" class="st78" d="M225.7,106.4c0-0.3,0-0.5,0-0.8c0.6,0,1.3,0,1.9,0c0.2,0.4,0.4,0.8,0.7,1.2
		C227.4,106.7,226.6,106.5,225.7,106.4z"/>
	<path id="XMLID_19_" class="st79" d="M244.5,106.3c0-0.2,0-0.5,0-0.7c0.6,0,1.3,0,1.9,0c0,0.2,0,0.5,0,0.7
		C245.8,106.3,245.2,106.3,244.5,106.3z"/>
	<path id="XMLID_18_" class="st47" d="M232.3,124.9c-0.4-0.4-0.9-0.8-1.3-1.2c0-1.2,0-2.4-0.1-3.6c1.1-1,2.3-1.6,3.9-1.3
		c1,2.3,1.5,4.6-1.3,6.1C233.1,124.9,232.7,124.9,232.3,124.9z"/>
	<path id="XMLID_17_" class="st52" d="M240.1,108.2c0-0.2,0-0.4,0-0.5c0.4,0,0.8-0.1,1.2-0.1C241,108,240.6,108.2,240.1,108.2z"/>
	<path id="XMLID_16_" class="st80" d="M250.3,123.6c-0.2,0.2-0.4,0.4-0.7,0.6c-0.9,0-1.7,0.1-2.6,0.1c0,0-0.3-0.1-0.3-0.1
		c-0.1-0.2-0.2-0.4-0.4-0.5l-0.1,0c-0.2-0.3-0.4-0.5-0.5-0.8c-0.2-1.6,0-3,1.3-4.2c0.8,0,1.6,0.1,2.4,0.1
		C250.9,120.3,250.5,122,250.3,123.6z"/>
	<path id="XMLID_15_" class="st81" d="M250.9,124.3c-0.2-0.2-0.3-0.3-0.5-0.5C250.6,124,250.8,124.2,250.9,124.3z"/>
	<path id="XMLID_14_" class="st48" d="M249.8,118.7c0.2-0.2,0.3-0.3,0.5-0.5C250.2,118.4,250,118.5,249.8,118.7z"/>
	<path id="XMLID_13_" class="st71" d="M221,123.8c0,0.4,0.1,0.9-0.5,1C220.5,124.4,220.6,124,221,123.8z"/>
	<path id="XMLID_12_" class="st82" d="M245.9,124.9c0-0.2-0.1-0.3-0.1-0.5c0.2,0,0.4,0,0.7,0c0.2-0.2,0.4-0.2,0.6,0c0,0,0,0,0,0
		C246.8,124.9,246.4,125,245.9,124.9z"/>
	<path id="XMLID_11_" class="st82" d="M246,118.3c0.4-0.1,0.9-0.2,1,0.4C246.5,118.7,246.1,118.7,246,118.3z"/>
	<path id="XMLID_10_" class="st73" d="M245.9,123c0.2,0.3,0.4,0.5,0.5,0.8C246.2,123.5,246.1,123.2,245.9,123z"/>
	<path id="XMLID_9_" class="st39" d="M247.1,124.4l-0.3,0c0,0-0.3,0-0.3,0c0-0.2,0-0.4,0-0.6C246.7,124,246.9,124.2,247.1,124.4z"/>
	<path id="XMLID_8_" class="st83" d="M219.2,131.9c-0.2,0.2-0.4,0.3-0.6,0.5c-0.1-0.1-0.1-0.2-0.2-0.3
		C218.7,132,218.9,131.9,219.2,131.9C219.2,131.9,219.2,131.9,219.2,131.9z"/>
	<path id="XMLID_7_" class="st84" d="M230.8,123.8c-0.2,0.2-0.3,0.3-0.5,0.5C230.5,124.1,230.7,124,230.8,123.8z"/>
	<path id="XMLID_6_" class="st85" d="M210.6,124.3c-0.2,0.1-0.4,0.1-0.5,0.1c0-1,0-2.1,0-3.1c0.2,0,0.4,0,0.5,0
		C210.6,122.3,210.6,123.3,210.6,124.3z"/>
	<path id="XMLID_5_" class="st48" d="M209.9,115c-0.2,0.2-0.3,0.3-0.5,0.5C209.6,115.4,209.8,115.2,209.9,115z"/>
	<path id="XMLID_4_" class="st64" d="M210.1,124.4c0,0.2-0.1,0.4-0.1,0.5c-0.2-0.2-0.3-0.3-0.5-0.5
		C209.7,124.4,209.9,124.4,210.1,124.4z"/>
	<path id="XMLID_3_" class="st27" d="M228.3,128.1c0.2,0.2,0.4,0.4,0.6,0.6C228.7,128.5,228.5,128.3,228.3,128.1z"/>
	<path id="XMLID_2_" class="st86" d="M231.6,125.5c0.2-0.2,0.3-0.3,0.5-0.5C232,125.2,231.8,125.4,231.6,125.5z"/>
	<path id="XMLID_1_" class="st87" d="M196.3,130.1c0,0.4,0.1,0.8,0.1,1.1c-0.8,0-1.2-0.3-1.2-1.1
		C195.6,130.1,195.9,130.1,196.3,130.1z"/>
</g>
</svg>
